# WaveFront *.obj file (generated by Autodesk ATF)

mtllib MAST.mtl

g Solid1

v 106.252953 1510.258399 610.000000
v 106.252953 1510.258399 490.000000
v -13.747047 1510.258399 490.000000
v -13.747047 1510.258399 610.000000
v 103.252953 1510.258399 493.000000
v 103.252953 1510.258399 607.000000
v -10.747047 1510.258399 607.000000
v -10.747047 1510.258399 493.000000
v -13.747047 -239.741601 610.000000
v -13.747047 -239.741601 490.000000
v 106.252953 -239.741601 490.000000
v 106.252953 -239.741601 610.000000
v 103.252953 -239.741601 493.000000
v -10.747047 -239.741601 493.000000
v -10.747047 -239.741601 607.000000
v 103.252953 -239.741601 607.000000
vt -10.625295 49.000000 0.000000
vt -10.325295 60.700000 0.000000
vt -10.625295 61.000000 0.000000
vt 1.074705 60.700000 0.000000
vt 1.374705 61.000000 0.000000
vt 1.374705 49.000000 0.000000
vt 1.074705 49.300000 0.000000
vt -10.325295 49.300000 0.000000
vt -6.000000 -6.000000 0.000000
vt -5.700000 5.700000 0.000000
vt -6.000000 6.000000 0.000000
vt 5.700000 5.700000 0.000000
vt 6.000000 6.000000 0.000000
vt 6.000000 -6.000000 0.000000
vt 5.700000 -5.700000 0.000000
vt -5.700000 -5.700000 0.000000
vt -11.400000 0.000000 0.000000
vt -0.000000 0.000000 0.000000
vt -11.400000 175.000000 0.000000
vt 0.000000 175.000000 0.000000
vt -11.400000 -0.000000 0.000000
vt -0.000000 0.000000 0.000000
vt -11.400000 175.000000 0.000000
vt -0.000000 175.000000 0.000000
vt -0.000000 0.000000 0.000000
vt -12.000000 0.000000 0.000000
vt -0.000000 -175.000000 0.000000
vt -12.000000 -175.000000 0.000000
vt 0.000000 0.000000 0.000000
vt 12.000000 0.000000 0.000000
vt 0.000000 175.000000 0.000000
vt 12.000000 175.000000 0.000000
vt 0.000000 0.000000 0.000000
vt 12.000000 -0.000000 0.000000
vt 0.000000 175.000000 0.000000
vt 12.000000 175.000000 0.000000
vt 0.000000 0.000000 0.000000
vt 12.000000 0.000000 0.000000
vt -0.000000 175.000000 0.000000
vt 12.000000 175.000000 0.000000
vt -175.000000 -11.400000 0.000000
vt 0.000000 -11.400000 0.000000
vt -175.000000 0.000000 0.000000
vt -0.000000 -0.000000 0.000000
vt -11.400000 0.000000 0.000000
vt -0.000000 0.000000 0.000000
vt -11.400000 175.000000 0.000000
vt -0.000000 175.000000 0.000000
vn -0.000000 0.100000 0.000000
vn -0.000000 0.100000 0.000000
vn -0.000000 0.100000 0.000000
vn -0.000000 0.100000 0.000000
vn -0.000000 0.100000 0.000000
vn -0.000000 0.100000 0.000000
vn -0.000000 0.100000 0.000000
vn -0.000000 0.100000 0.000000
vn 0.000000 -0.100000 0.000000
vn 0.000000 -0.100000 0.000000
vn 0.000000 -0.100000 0.000000
vn 0.000000 -0.100000 0.000000
vn 0.000000 -0.100000 0.000000
vn 0.000000 -0.100000 0.000000
vn 0.000000 -0.100000 0.000000
vn 0.000000 -0.100000 0.000000
vn 0.000000 -0.000000 0.100000
vn 0.000000 -0.000000 0.100000
vn 0.000000 -0.000000 0.100000
vn 0.000000 -0.000000 0.100000
vn -0.000000 -0.000000 -0.100000
vn -0.000000 -0.000000 -0.100000
vn -0.000000 -0.000000 -0.100000
vn -0.000000 -0.000000 -0.100000
vn -0.100000 -0.000000 0.000000
vn -0.100000 -0.000000 0.000000
vn -0.100000 -0.000000 0.000000
vn -0.100000 -0.000000 0.000000
vn 0.100000 0.000000 -0.000000
vn 0.100000 0.000000 -0.000000
vn 0.100000 0.000000 -0.000000
vn 0.100000 0.000000 -0.000000
vn 0.000000 0.000000 0.100000
vn 0.000000 0.000000 0.100000
vn 0.000000 0.000000 0.100000
vn 0.000000 0.000000 0.100000
vn -0.000000 0.000000 -0.100000
vn -0.000000 0.000000 -0.100000
vn -0.000000 0.000000 -0.100000
vn -0.000000 0.000000 -0.100000
vn 0.100000 0.000000 -0.000000
vn 0.100000 0.000000 -0.000000
vn 0.100000 0.000000 -0.000000
vn 0.100000 0.000000 -0.000000
vn -0.100000 -0.000000 0.000000
vn -0.100000 -0.000000 0.000000
vn -0.100000 -0.000000 0.000000
vn -0.100000 -0.000000 0.000000
usemtl 191,191,191
f 2/1/1 6/2/2 1/3/3
f 1/3/3 6/2/2 7/4/4
f 1/3/3 7/4/4 4/5/5
f 4/5/5 7/4/4 3/6/6
f 3/6/6 7/4/4 8/7/7
f 3/6/6 8/7/7 5/8/8
f 6/2/2 2/1/1 5/8/8
f 5/8/8 2/1/1 3/6/6
f 10/9/9 15/10/10 9/11/11
f 9/11/11 15/10/10 16/12/12
f 9/11/11 16/12/12 12/13/13
f 12/13/13 16/12/12 11/14/14
f 11/14/14 16/12/12 13/15/15
f 11/14/14 13/15/15 14/16/16
f 15/10/10 10/9/9 14/16/16
f 14/16/16 10/9/9 11/14/14
f 14/17/17 13/18/18 8/19/19
f 8/19/19 13/18/18 5/20/20
f 16/21/21 15/22/22 6/23/23
f 6/23/23 15/22/22 7/24/24
f 10/25/25 9/26/26 3/27/27
f 3/27/27 9/26/26 4/28/28
f 12/29/29 11/30/30 1/31/31
f 1/31/31 11/30/30 2/32/32
f 9/33/33 12/34/34 4/35/35
f 4/35/35 12/34/34 1/36/36
f 11/37/37 10/38/38 2/39/39
f 2/39/39 10/38/38 3/40/40
f 7/41/41 15/42/42 8/43/43
f 8/43/43 15/42/42 14/44/44
f 13/45/45 16/46/46 5/47/47
f 5/47/47 16/46/46 6/48/48

# 16 vertices
# 48 texture params
# 48 normals
# 32 facets

# 1 groups
